<svg
   version="1.1"
   id="svg1126"
   width="266.66666"
   height="497.33334"
   viewBox="0 0 266.66666 497.33334"
   xmlns="http://www.w3.org/2000/svg"
   xmlns:svg="http://www.w3.org/2000/svg">
  <defs
     id="defs1130" />
  <g id="g1132">
    <path
       style="fill:#F5F5F5;stroke-width:0.666667"
       d="m 134.97237,497.12904 c -0.19852,-0.20954 -2.14852,-0.52982 -4.33333,-0.71171 -4.24382,-0.35331 -6.96051,-0.75658 -9.63904,-1.43083 -0.91667,-0.23074 -2.18576,-0.41045 -2.82021,-0.39935 -0.63445,0.0111 -1.33017,-0.26561 -1.54607,-0.61493 -0.21588,-0.34932 -0.68493,-0.4544 -1.04232,-0.23352 -0.3574,0.22088 -1.03522,0.0817 -1.50626,-0.30919 -0.47105,-0.39093 -1.43291,-0.82091 -2.13746,-0.95549 -0.70456,-0.13459 -2.12554,-0.59056 -3.15775,-1.01327 -1.0322,-0.42271 -2.4572,-0.76857 -3.16667,-0.76857 -0.70946,0 -1.28993,-0.3 -1.28993,-0.66666 0,-0.36667 -0.35416,-0.66667 -0.78703,-0.66667 -1.23996,0 -13.798969,-6.61659 -17.517182,-9.22875 -14.621933,-10.27236 -26.344717,-23.86808 -33.59089,-38.95764 -4.667381,-9.71944 -5.404177,-11.4715 -5.815784,-13.8296 -0.22247,-1.27454 -0.582316,-2.76734 -0.799658,-3.31734 -0.217341,-0.55 -0.471853,-1.45 -0.565581,-2 -0.09373,-0.55 -0.377751,-1.9 -0.631161,-3 -0.407703,-1.76975 -0.73301,-3.62936 -0.903823,-5.16667 -0.03055,-0.275 -7.954122,-0.5 -17.607925,-0.5 H 8.5619259 L 5.4318799,411.2856 C 3.7103539,410.1453 2.008921,408.66502 1.6509167,407.99609 L 1,406.77984 v -91.42175 -91.42174 l 3.0612699,-6.45542 c 1.683698,-3.55048 4.06537,-8.55542 5.292605,-11.12208 1.2272341,-2.56667 2.4321851,-5.49167 2.6776691,-6.5 0.245483,-1.00834 0.6873,-1.83334 0.981815,-1.83334 0.294515,0 1.380307,-2.175 2.412871,-4.83333 1.032565,-2.65833 2.213449,-5.18413 2.624186,-5.61289 0.410738,-0.42876 1.44843,-2.67876 2.305982,-5 0.857551,-2.32124 1.774915,-4.37068 2.038586,-4.5543 0.263671,-0.18363 1.328184,-2.43363 2.365586,-5 1.037401,-2.56638 2.087401,-4.81638 2.333333,-5 0.245932,-0.18363 1.295932,-2.43363 2.333334,-5 1.037401,-2.56638 2.087401,-4.81638 2.333333,-5 0.245931,-0.18363 1.298217,-2.43363 2.338413,-5 1.040195,-2.56638 2.268459,-5.06257 2.729473,-5.5471 0.461016,-0.48452 0.83821,-1.14165 0.83821,-1.46029 0,-0.31863 1.53043,-3.82221 3.400956,-7.78571 9.991358,-21.17096 9.882945,-20.99215 14.433256,-23.80533 l 2.834213,-1.75222 71.832449,-1.8e-4 c 39.50785,-1.1e-4 74.60745,0.004 77.99912,0.009 l 6.16667,0.009 v 14.59335 14.59332 l -13.5,0.44805 c -7.425,0.24642 -39.47609,0.35442 -71.22464,0.24 l -57.724638,-0.20803 -1.091434,2.33333 c -0.600286,1.28333 -2.629933,5.63333 -4.510319,9.66667 -1.880389,4.03333 -4.258729,9.13333 -5.2852,11.33333 -2.718567,5.82661 -7.213611,15.49235 -8.990946,19.33333 -2.524138,5.45489 -6.374897,13.71622 -13.672821,29.33334 -1.028066,2.2 -3.125206,6.7 -4.660312,10 -1.535105,3.3 -3.515863,7.50576 -4.401683,9.34613 l -1.61058,3.34614 0.169621,73.32053 0.169621,73.32053 7.833333,0.18783 7.833334,0.18782 0.05555,-0.85449 c 0.03055,-0.46997 0.159215,-1.45449 0.285909,-2.18782 0.126695,-0.73334 0.411505,-2.51442 0.632912,-3.95796 0.221406,-1.44354 0.690144,-2.97115 1.04164,-3.39468 0.351495,-0.42352 0.448935,-0.96019 0.216532,-1.19259 -0.232402,-0.23241 -0.119494,-0.8048 0.250906,-1.272 0.3704,-0.4672 1.194042,-2.49944 1.830315,-4.51611 2.545017,-8.06643 5.384115,-13.72578 11.538284,-23 l 4.423858,-6.66667 7.695378,-7.72514 7.695379,-7.72515 7.688754,-5.05109 c 4.228819,-2.7781 9.478822,-5.83806 11.666662,-6.79989 2.187855,-0.96184 4.498845,-2.03753 5.135535,-2.39043 0.6367,-0.3529 1.44216,-0.64163 1.78994,-0.64163 0.34777,0 1.47684,-0.34585 2.50904,-0.76857 1.03221,-0.42271 2.45319,-0.87868 3.15775,-1.01326 0.70455,-0.13459 1.60455,-0.50409 2,-0.82112 0.6532,-0.52368 3.20591,-1.21838 6.71899,-1.82852 0.73333,-0.12737 2.23333,-0.38699 3.33333,-0.57694 9.84062,-1.69928 26.06288,-1.71394 35,-0.0317 0.91666,0.17255 2.86666,0.50832 4.33333,0.74615 1.46667,0.23783 2.99427,0.69865 3.39467,1.02403 0.4004,0.3254 0.8962,0.42342 1.10178,0.21785 0.20558,-0.20557 1.73652,0.24703 3.40208,1.00579 1.66558,0.75875 3.62707,1.37955 4.35888,1.37955 0.73181,0 1.51598,0.3 1.74259,0.66667 0.22661,0.36666 0.96932,0.66666 1.65045,0.66666 0.68114,0 1.33844,0.225 1.46066,0.5 0.12222,0.275 2.62222,1.68543 5.55556,3.13429 17.6041,8.69516 33.50232,24.4559 42.73528,42.36571 1.41769,2.75 2.76102,5.15 2.98519,5.33334 0.22416,0.18333 0.62568,1.22292 0.89227,2.3102 0.26659,1.08728 1.06184,3.24374 1.76722,4.79214 0.70537,1.5484 1.38837,3.3588 1.51778,4.02313 0.1294,0.66432 0.40602,1.65786 0.6147,2.20786 0.20868,0.55 0.56532,1.9 0.79253,3 0.22721,1.1 0.57041,2.75 0.76265,3.66667 0.3923,1.87062 0.79313,4.08009 0.87682,4.83333 0.0306,0.27504 6.65556,0.50004 14.72222,0.50004 h 14.66667 v 14.65391 14.65391 l -14.77845,0.17942 -14.77846,0.17942 -0.13753,1.33334 c -0.0756,0.73333 -0.34486,2.23333 -0.59827,3.33333 -0.25341,1.1 -0.55293,2.6 -0.6656,3.33333 -0.11268,0.73334 -0.27775,1.48334 -0.36684,1.66667 -0.0891,0.18333 -0.21876,0.63333 -0.28816,1 -0.0694,0.36667 -0.50594,1.56667 -0.9701,2.66667 -0.46416,1.1 -1.19281,3.35 -1.61921,5 -0.4264,1.65 -0.93025,3.15 -1.11966,3.33333 -0.18941,0.18333 -1.94155,3.55769 -3.89363,7.49857 -10.33908,20.87262 -27.41716,36.78539 -50.11742,46.69772 -2.51615,1.0987 -10.57541,3.76468 -11.66667,3.85929 -0.36666,0.0318 -1.04891,0.37504 -1.51611,0.76278 -0.46719,0.38773 -1.03163,0.52278 -1.25432,0.30009 -0.22268,-0.22268 -0.90446,-0.1375 -1.51507,0.18928 -0.99982,0.53509 -3.97744,1.07168 -9.7145,1.75063 -4.65556,0.55096 -17.3624,1.06215 -17.69429,0.71183 z m 14.69429,-30.72365 c 5.91632,-0.75913 7.68172,-1.05232 8.66667,-1.43933 0.55,-0.21611 1.74302,-0.53434 2.65115,-0.70718 7.59749,-1.446 23.03192,-11.11244 30.33034,-18.9956 5.95052,-6.42728 12.87773,-17.87225 13.86317,-22.90443 0.21541,-1.1 0.75958,-2.9 1.20926,-4 1.0839,-2.65137 1.21398,-3.18727 2.34632,-9.66667 0.51844,-2.96656 0.5677,-16.92182 0.0706,-20 -0.99882,-6.18501 -1.29312,-7.70537 -1.58291,-8.17766 -0.17245,-0.28105 -0.44552,-1.23878 -0.60682,-2.1283 -1.28187,-7.06911 -8.5772,-19.25607 -16.41276,-27.41777 l -5.4854,-5.71372 -5.35814,-3.55286 c -4.94783,-3.28079 -7.46252,-4.60629 -13.69148,-7.21682 -3.85249,-1.61457 -5.60254,-2.06651 -13.66666,-3.52933 -3.45127,-0.62606 -18.54874,-0.62606 -22,0 -8.09218,1.46791 -9.8434,1.9213 -13.66667,3.53827 -6.05002,2.55873 -8.73073,3.978 -13.76539,7.28792 l -5.432045,3.57118 -5.901284,6.24771 -5.90128,6.24772 -3.1025,5.25516 c -3.09304,5.23915 -6.34716,12.53557 -6.865453,15.3938 -0.1502,0.82832 -0.414193,1.73599 -0.586647,2.01704 -0.289793,0.47229 -0.584086,1.99265 -1.582913,8.17766 -0.515566,3.19252 -0.43954,17.05826 0.111494,20.33334 0.775986,4.61214 0.910753,5.3245 1.072006,5.66666 0.08641,0.18334 0.214627,0.63334 0.284933,1 0.07031,0.36667 0.500947,1.56667 0.956974,2.66667 0.456026,1.1 0.99206,2.975 1.19118,4.16667 0.199126,1.19166 0.6228,2.16666 0.941486,2.16666 0.318694,0 0.57944,0.4844 0.57944,1.07645 0,7.75626 19.449224,28.64563 31.333329,33.65346 2.01667,0.8498 3.76667,1.78322 3.88889,2.07426 0.12223,0.29104 0.60113,0.52917 1.06425,0.52917 0.4631,0 1.7131,0.43235 2.77777,0.96078 1.06467,0.52844 2.68576,1.10165 3.60243,1.27382 0.91666,0.17216 2.11666,0.48983 2.66666,0.70594 1.0139,0.39838 3.26996,0.76693 8.63078,1.40992 1.63025,0.19554 3.02991,0.42168 3.11034,0.50253 0.27523,0.27665 11.25475,-0.0876 14.25888,-0.47312 z m 90.33669,-112.18998 c -1.96247,-0.51728 -6.88066,-4.0483 -7.65566,-5.4964 -0.36976,-0.6909 -1.19926,-1.78315 -1.84333,-2.4272 l -1.17103,-1.171 V 172.73983 0.358842 L 244.16666,0.179421 258.99999,0 v 162.34609 162.34609 h 4.33334 4.33333 v 14.66667 14.66666 l -11.83333,0.009 c -6.50834,0.005 -12.43334,0.12661 -13.16667,0.27023 -0.73333,0.14362 -1.93182,0.10337 -2.66331,-0.0894 z M 68.390585,248.20735 c -4.003361,-0.75432 -10.126949,-6.30648 -11.229756,-10.18184 -1.040838,-3.65759 -0.26211,-12 1.120149,-12 0.279605,0 1.355105,-2.175 2.390001,-4.83333 1.034897,-2.65833 2.103559,-4.98333 2.374806,-5.16667 0.271247,-0.18333 1.325755,-2.43333 2.343352,-5 1.017597,-2.56666 2.067597,-4.81666 2.333335,-5 0.265733,-0.18333 1.31738,-2.43333 2.33698,-5 1.019606,-2.56666 2.074073,-4.75858 2.34326,-4.87091 0.26918,-0.11233 1.30388,-2.43733 2.299319,-5.16667 0.995447,-2.72933 2.039274,-4.96242 2.319627,-4.96242 0.280353,0 1.330353,-2.25 2.333333,-5 1.00298,-2.75 2.060154,-5 2.349274,-5 0.289113,0 0.885133,-1.08921 1.324493,-2.42047 0.952347,-2.88564 4.495247,-6.96701 7.869,-9.06497 l 2.435577,-1.51456 H 144 c 70.39476,0 63.70179,-4.52752 63.72858,43.10988 0.009,16.88491 -0.15055,30.86764 -0.35566,31.07276 -0.20511,0.2051 -0.37293,0.99934 -0.37293,1.76497 v 1.39205 l -3.52888,3.33018 -3.52887,3.33016 -2.79396,0.83334 -2.79395,0.83333 -62.17717,-0.0908 c -34.197435,-0.0499 -62.901395,-0.22725 -63.786575,-0.39404 z M 178.33333,205.70351 v -12.32199 l -35.96126,-0.17801 -35.96126,-0.178 -1.85189,4.66667 c -1.01854,2.56667 -2.05771,4.81691 -2.30927,5.00053 -0.25155,0.18362 -1.30616,2.43362 -2.34356,5 -1.0374,2.56638 -2.046765,4.81614 -2.243035,4.99947 -0.52222,0.48779 -1.99639,3.9569 -1.99639,4.69803 v 0.6353 H 137 178.33333 Z"
       id="path1226" />
  </g>
</svg>
