<svg
   version="1.1"
   id="svg1368"
   width="235.33333"
   height="196"
   viewBox="0 0 235.33333 196"
   xmlns="http://www.w3.org/2000/svg"
   xmlns:svg="http://www.w3.org/2000/svg">
  <defs id="defs1372" />
  <g id="g1374">
    <path
       style="fill:#F5F5F5;stroke-width:0.666667"
       d="m 111.19153,195.29798 c -0.12762,-0.12762 -1.12292,-0.39482 -2.21178,-0.59379 -3.63868,-0.6649 -4.63382,-0.91891 -6.64642,-1.69651 -1.1,-0.425 -2.075,-0.75164 -2.16666,-0.72587 -0.0917,0.0258 -0.241671,0.0239 -0.333338,-0.004 -0.09167,-0.0281 -0.715093,-0.15495 -1.385393,-0.28199 -0.6703,-0.12704 -1.7203,-0.45317 -2.333334,-0.72474 -0.613033,-0.27172 -1.264606,-0.54574 -1.44794,-0.60907 -1.82398,-0.63012 -3.388826,-1.32222 -5.48178,-2.42447 -1.36498,-0.71887 -2.56498,-1.24842 -2.666666,-1.17679 -0.493907,0.34792 -3.184887,-0.90511 -3.184887,-1.48301 0,-0.3636 -0.3,-0.47568 -0.666667,-0.24906 -0.366666,0.22661 -0.666666,0.11758 -0.666666,-0.24229 0,-0.35987 -1.05,-1.00084 -2.333333,-1.42438 -1.283334,-0.42354 -2.333334,-1.04681 -2.333334,-1.38503 0,-0.33824 -0.45,-0.61497 -1,-0.61497 -0.55,0 -1,-0.24931 -1,-0.55401 0,-0.30471 -0.825,-0.97971 -1.833333,-1.5 -1.008333,-0.5203 -2.171573,-1.24599 -2.58498,-1.61266 -0.413407,-0.36666 -1.424107,-1.11666 -2.246,-1.66666 -3.888408,-2.60207 -11.552399,-9.90952 -15.002353,-14.30443 -1.1,-1.40129 -2.525,-3.10605 -3.166667,-3.78835 -0.641666,-0.68231 -1.166666,-1.41652 -1.166666,-1.63157 0,-0.57063 -4.2444,-6.56946 -4.833334,-6.83121 -0.275,-0.12222 -0.5,-0.62579 -0.5,-1.11904 0,-0.49326 -0.385112,-1.29326 -0.855806,-1.77778 -0.945254,-0.97303 -4.611487,-8.28074 -4.463446,-8.89675 0.05127,-0.21331 -0.331626,-1.04702 -0.850864,-1.85269 -0.519238,-0.80567 -1.109218,-2.06485 -1.311068,-2.79818 -0.20185,-0.73334 -1.174155,-4.03334 -2.160678,-7.33334 -0.986523,-3.3 -1.949241,-6.75 -2.139374,-7.66666 -0.190133,-0.91667 -0.444183,-2.11667 -0.564556,-2.66667 -0.120372,-0.55 -0.241813,-1.375 -0.269867,-1.83333 -0.03927,-0.64158 -3.655989,-0.83334 -15.717674,-0.83334 H 0 L -5.6288707e-4,98.16201 -0.00112577,83.328678 15.336162,83.519271 l 15.337289,0.190587 0.622079,-1.52392 c 0.342144,-0.83816 1.147149,-3.923927 1.7889,-6.85726 1.355795,-6.1971 1.363333,-6.22886 1.582236,-6.666667 0.09167,-0.183333 0.241667,-0.633333 0.333334,-1 0.09167,-0.366667 0.241666,-0.816667 0.333333,-1 0.09167,-0.183333 0.222394,-0.558333 0.290505,-0.833333 0.06811,-0.275 0.630611,-1.661638 1.25,-3.081416 0.619389,-1.419779 1.126161,-2.837528 1.126161,-3.150554 0,-0.313026 0.598879,-1.551388 1.330842,-2.751917 0.731962,-1.200529 1.331962,-2.40778 1.333333,-2.68278 0.0014,-0.275 -9.147508,-0.5 -20.330841,-0.5 H 0 V 38.995344 24.328678 h 31.988477 31.988477 l 2.076509,-1.833334 c 1.142083,-1.008333 2.563936,-2.358333 3.159683,-3 0.595746,-0.641666 1.4665,-1.166666 1.935013,-1.166666 0.468513,0 0.85184,-0.3 0.85184,-0.666667 0,-0.366667 0.45,-0.666667 1,-0.666667 0.55,0 1,-0.3 1,-0.666666 0,-0.366667 0.45,-0.666667 1,-0.666667 0.55,0 1,-0.3 1,-0.666667 0,-0.366666 0.428573,-0.666666 0.95238,-0.666666 0.523813,0 1.358047,-0.375 1.85386,-0.833334 1.001047,-0.925375 11.028193,-6.0322589 11.333813,-5.7723779 0.106307,0.09039 0.94328,-0.250712 1.859947,-0.758012 0.916666,-0.507299 1.891666,-0.970493 2.166666,-1.02932 0.275,-0.05883 0.65,-0.181956 0.833334,-0.273623 0.183333,-0.09167 0.558333,-0.230077 0.833333,-0.307578 0.275,-0.0775 1.001573,-0.363108 1.614607,-0.634682 0.613033,-0.271573 1.663033,-0.59771 2.333333,-0.724748 C 100.45157,3.8679661 101,3.7181191 101,3.6620111 c 0,-0.05611 0.45,-0.211524 1,-0.345368 0.55,-0.133844 1.75,-0.427053 2.66667,-0.651576 2.74886,-0.673292 7.20406,-1.47844 11.66666,-2.108413 4.32663,-0.610778 19.62399,-0.608291 24.33333,0.004 5.34783,0.695254 12.22164,1.976499 13.33334,2.485269 0.18333,0.0839 0.63333,0.222251 1,0.307441 0.36666,0.08519 0.89166,0.226995 1.16666,0.315124 0.275,0.08813 0.725,0.222871 1,0.299429 0.275,0.07656 1.28697,0.467173 2.24882,0.868035 0.96186,0.400861 2.31186,0.825723 3,0.944137 0.68815,0.118414 1.40118,0.410313 1.58452,0.648665 0.18333,0.238352 0.93333,0.538352 1.66666,0.666667 0.73334,0.128315 1.48334,0.3833 1.66667,0.566633 0.43219,0.432183 8.84095,4.4667399 9.51295,4.5643519 0.28212,0.04098 1.15256,0.670391 1.9343,1.398691 0.78174,0.728301 1.67591,1.166852 1.98704,0.974559 0.31114,-0.192297 0.56571,-0.03192 0.56571,0.356384 0,0.388306 0.45,0.706011 1,0.706011 0.55,0 1,0.3 1,0.666667 0,0.366666 0.31627,0.666666 0.70282,0.666666 0.38655,0 1.66155,0.898612 2.83333,1.996916 1.17179,1.098302 2.34188,1.998302 2.60022,2 0.25833,0.0017 1.21969,0.753084 2.13636,1.669751 l 1.66666,1.666667 h 21.03031 21.0303 V 38.995344 53.662011 H 226 c -5.13334,0 -9.33334,0.18959 -9.33334,0.421311 0,0.23172 0.62447,1.43172 1.38771,2.666666 0.76324,1.234946 1.20268,2.245356 0.97655,2.245356 -0.22614,0 -0.0363,0.675 0.422,1.5 0.45824,0.825 0.85592,1.65 0.88372,1.833334 0.0278,0.183333 0.71294,2.283333 1.52252,4.666666 0.80957,2.383334 1.4918,4.552787 1.51606,4.821 0.0243,0.26822 0.34216,1.46822 0.70644,2.666667 0.76041,2.50162 1.31728,4.927493 1.57148,6.845667 0.0972,0.733333 0.21498,1.558333 0.26178,1.833333 0.0468,0.275 2.18508,0.5 4.75174,0.5 h 4.66667 v 14.666659 14.66667 h -4.66667 c -2.56666,0 -4.70495,0.225 -4.75174,0.5 -0.0468,0.275 -0.1646,1.1 -0.26178,1.83334 -0.2542,1.91817 -0.81107,4.34404 -1.57148,6.84566 -0.36428,1.19845 -0.63226,2.24845 -0.59551,2.33334 0.0367,0.0849 -0.64549,2.25433 -1.51607,4.821 -0.87058,2.56666 -1.60758,4.81666 -1.63776,5 -0.0302,0.18333 -0.57338,1.30518 -1.20711,2.49301 -0.63373,1.18783 -1.12798,2.32084 -1.09835,2.51781 0.12223,0.81244 -2.32795,5.65584 -2.86117,5.65584 -0.31775,0 -0.39231,0.3 -0.16569,0.66667 0.22661,0.36667 0.11453,0.66667 -0.24907,0.66667 -0.36359,0 -0.868,0.65194 -1.1209,1.44875 -0.2529,0.79681 -1.02291,2.05316 -1.71114,2.79189 -0.68823,0.73873 -1.62477,2.18679 -2.08119,3.21792 -0.45642,1.03112 -1.05662,1.87477 -1.33378,1.87477 -0.27716,0 -0.50392,0.3 -0.50392,0.66667 0,0.36666 -0.525,1.2258 -1.16667,1.90918 -0.64167,0.68339 -2.21667,2.52511 -3.5,4.09272 -4.92614,6.01734 -10.42145,10.95821 -17.87832,16.07452 -2.81693,1.93276 -5.30522,3.78185 -5.52955,4.10911 -0.22433,0.32726 -0.67433,0.60999 -1,0.62831 -1.17195,0.0659 -3.59213,1.41282 -3.59213,1.99918 0,0.32945 -0.3,0.41359 -0.66667,0.18698 C 174.3,185.10206 174,185.25206 174,185.66201 c 0,0.40995 -0.3,0.55995 -0.66667,0.33333 -0.36667,-0.22661 -0.66667,-0.0766 -0.66667,0.33334 0,0.40994 -0.3,0.55994 -0.66666,0.33333 -0.36667,-0.22661 -0.66667,-0.14432 -0.66667,0.18288 0,0.32719 -0.375,0.62458 -0.83333,0.66087 -0.66396,0.0525 -9.05492,3.11451 -14.5,5.29122 -1.23911,0.49534 -2.51269,0.818 -4.66667,1.18232 -0.91667,0.15504 -3.31667,0.60683 -5.33333,1.00398 -3.25196,0.64043 -34.20292,0.92026 -34.80847,0.3147 z m 27.47513,-29.31328 c 3.2456,-0.54148 4.74704,-0.82608 6.58906,-1.24896 2.46202,-0.56522 7.54722,-2.42744 9.57761,-3.50734 1.00833,-0.53631 1.83333,-0.80044 1.83333,-0.58696 0,0.53261 4.05483,-1.60569 5.18169,-2.73254 0.50245,-0.50246 1.34212,-0.91356 1.86593,-0.91356 0.52381,0 0.95238,-0.3 0.95238,-0.66666 0,-0.36667 0.39344,-0.66667 0.8743,-0.66667 0.48086,0 1.51831,-0.6 2.30546,-1.33333 0.78714,-0.73334 1.63713,-1.33334 1.88888,-1.33334 0.54781,0 1.89491,-1.21622 7.51706,-6.7867 5.31764,-5.26878 6.08097,-6.1514 6.08097,-7.03123 0,-0.38835 0.38406,-0.85346 0.85347,-1.03359 0.46941,-0.18013 1.44441,-1.48722 2.16667,-2.90466 0.72225,-1.41743 1.49885,-2.72715 1.72576,-2.91048 0.65771,-0.5314 3.98135,-7.33334 3.58329,-7.33334 -0.19796,0 0.13149,-0.75 0.73212,-1.66666 0.60062,-0.91667 0.8708,-1.66667 0.6004,-1.66667 -0.2704,0 -0.11817,-0.45 0.33829,-1 0.45646,-0.55 0.62549,-1 0.37562,-1 -0.24987,0 -0.22004,-0.375 0.0663,-0.83333 0.28633,-0.45834 0.5865,-1.13334 0.66704,-1.5 0.0805,-0.36667 0.31398,-1.34167 0.51874,-2.16667 1.56336,-6.29867 1.75574,-7.69924 2.08328,-15.16667 0.39218,-8.94133 -2.0544,-23.019242 -4.54748,-26.166662 -0.36304,-0.458334 -0.48549,-0.833334 -0.27209,-0.833334 0.40019,0 -4.17586,-9.405381 -4.86535,-10 -0.21259,-0.183333 -0.74898,-1.158333 -1.192,-2.166666 -0.44298,-1.008334 -1.11188,-1.833334 -1.4864,-1.833334 -0.37453,0 -0.68096,-0.459415 -0.68096,-1.020923 0,-0.561507 -0.45,-1.193604 -1,-1.404659 -0.55,-0.211055 -1,-0.653828 -1,-0.98394 0,-0.634661 -9.06883,-9.662648 -12.79845,-12.740816 -1.21085,-0.999353 -2.57655,-1.824353 -3.03489,-1.833334 -0.45833,-0.009 -0.83333,-0.293062 -0.83333,-0.631293 0,-0.338231 -1.05,-0.961497 -2.33333,-1.385035 -1.28334,-0.423538 -2.33334,-1.064508 -2.33334,-1.424379 0,-0.359871 -0.27438,-0.484736 -0.60972,-0.277478 -0.33535,0.207257 -0.71134,0.07199 -0.83554,-0.300594 -0.12419,-0.372585 -0.87753,-0.802937 -1.67408,-0.956339 -0.79656,-0.153402 -2.22057,-0.784933 -3.16447,-1.403402 -0.9439,-0.618468 -1.71619,-0.903251 -1.71619,-0.632851 0,0.2704 -0.45,0.118169 -1,-0.33829 -0.55,-0.456459 -1,-0.606459 -1,-0.333333 0,0.273126 -0.45,0.123126 -1,-0.333334 -0.55,-0.456459 -1,-0.632638 -1,-0.391507 0,0.241131 -0.525,0.157587 -1.16666,-0.185653 -0.64167,-0.34324 -2.21667,-0.821564 -3.5,-1.062942 -1.28334,-0.241377 -3.08334,-0.598732 -4,-0.79412 -3.19756,-0.681563 -18.03952,-0.811932 -21.50629,-0.188908 -5.60447,1.007199 -6.05778,1.097863 -8.16038,1.632124 -1.1,0.279504 -2.3,0.741312 -2.66666,1.02624 -0.36667,0.284928 -0.96667,0.520296 -1.33334,0.52304 -1.44635,0.01083 -5.66666,1.689848 -5.66666,2.254444 0,0.329618 -0.3,0.413895 -0.66667,0.187282 -0.366668,-0.226612 -0.666668,-0.07661 -0.666668,0.333334 0,0.409946 -0.3,0.559946 -0.666667,0.333333 -0.366666,-0.226613 -0.666666,-0.07661 -0.666666,0.333333 0,0.409946 -0.3,0.559946 -0.666667,0.333334 -0.366667,-0.226613 -0.666667,-0.09432 -0.666667,0.293988 0,0.388306 -0.24264,0.631012 -0.5392,0.539345 -1.9022,-0.587969 -20.794133,15.186295 -20.794133,17.362551 0,0.363805 -0.45,0.834145 -1,1.0452 -0.55,0.211055 -1,0.843152 -1,1.404659 0,0.561508 -0.306433,1.020923 -0.68096,1.020923 -0.374526,0 -1.04342,0.825 -1.486426,1.833334 -0.443014,1.008333 -0.98778,1.983333 -1.2106,2.166666 -0.39696,0.32662 -4.901293,9.302527 -5.01121,9.98598 -0.03073,0.191047 -0.394241,1.16168 -0.807814,2.156967 -1.348606,3.245493 -2.714804,8.757073 -3.434854,13.857049 -0.646578,4.57959 -0.538212,15.29768 0.19547,19.33334 0.16665,0.91666 0.513065,2.86666 0.769812,4.33333 0.256746,1.46667 0.747314,3.19167 1.090152,3.83333 0.342808,0.64167 0.426024,1.16667 0.184893,1.16667 -0.241131,0 -0.06495,0.45 0.391507,1 0.45646,0.55 0.60646,1 0.333334,1 -0.273126,0 -0.123126,0.45 0.333333,1 0.456459,0.55 0.60869,1 0.33829,1 -0.2704,0 -2.18e-4,0.75 0.600405,1.66667 0.600624,0.91666 0.930072,1.66666 0.73211,1.66666 -0.398056,0 2.925582,6.80194 3.583295,7.33334 0.226913,0.18333 1.003507,1.49305 1.72576,2.91048 0.72226,1.41744 1.69726,2.72453 2.166667,2.90466 0.469413,0.18013 0.853473,0.62813 0.853473,0.99555 0,0.81395 1.836593,2.94234 6.666667,7.72587 5.085946,5.03694 6.307786,6.1301 6.851706,6.1301 0.25932,0 1.19698,0.63081 2.083693,1.4018 0.886714,0.77099 1.794827,1.36473 2.018027,1.31943 0.223193,-0.0453 1.045413,0.51351 1.827153,1.24182 0.78174,0.7283 1.675914,1.16685 1.987047,0.97455 0.31114,-0.19229 0.565707,-0.0683 0.565707,0.27551 0,0.66484 3.990146,2.54605 4.833331,2.27874 0.275,-0.0872 0.5,0.10174 0.5,0.41983 0,0.70008 9.51272,3.91362 13.0987,4.42494 1.41238,0.20139 3.91797,0.535 5.56797,0.74136 1.65,0.20635 3.15,0.53287 3.33333,0.7256 0.37279,0.39191 11.71333,-0.21029 15.33333,-0.81422 z"
       id="path1396" />
  </g>
</svg>
